<svg width="719" height="147" viewBox="0 0 719 147" fill="none" xmlns="http://www.w3.org/2000/svg">
<path d="M197.727 113.367C205.419 113.367 212.055 111.708 217.633 108.391C223.211 105.073 227.513 100.37 230.539 94.2812C233.602 88.1562 235.133 80.9193 235.133 72.5703V72.4609C235.133 64.112 233.602 56.8932 230.539 50.8047C227.513 44.7161 223.193 40.013 217.578 36.6953C212 33.3776 205.383 31.7188 197.727 31.7188C190.07 31.7188 183.435 33.3776 177.82 36.6953C172.242 40.013 167.922 44.7161 164.859 50.8047C161.797 56.8932 160.266 64.112 160.266 72.4609V72.5703C160.266 80.9193 161.779 88.1562 164.805 94.2812C167.867 100.37 172.188 105.073 177.766 108.391C183.38 111.708 190.034 113.367 197.727 113.367ZM197.727 101.172C193.023 101.172 188.94 100.005 185.477 97.6719C182.013 95.3385 179.333 92.0391 177.438 87.7734C175.578 83.4714 174.648 78.4036 174.648 72.5703V72.4609C174.648 66.5911 175.578 61.5234 177.438 57.2578C179.333 52.9922 182.013 49.7109 185.477 47.4141C188.977 45.0807 193.06 43.9141 197.727 43.9141C202.43 43.9141 206.513 45.0807 209.977 47.4141C213.44 49.7109 216.102 53.0104 217.961 57.3125C219.857 61.5781 220.805 66.6276 220.805 72.4609V72.5703C220.805 78.3672 219.875 83.4167 218.016 87.7188C216.156 91.9844 213.495 95.3021 210.031 97.6719C206.604 100.005 202.503 101.172 197.727 101.172Z" fill="white"/>
<path d="M259.742 87.4453L275.547 68.7422H277.734L307.594 33.0859H291.461L260.836 70.1641H259.742V87.4453ZM246.398 112H260.508V33.0859H246.398V112ZM292.828 112H309.945L276.422 65.1328L266.305 74.5391L292.828 112Z" fill="white"/>
<path d="M317.383 112H368.461V100.133H331.492V77.6016H366.438V66.2266H331.492V44.9531H368.461V33.0859H317.383V112Z" fill="white"/>
<path d="M375.133 112H389.68L401.656 91.2188H401.93L414.016 112H428.836L410.406 82.6875L429.055 54.0312H414.18L402.586 74.375H402.312L390.664 54.0312H375.352L393.891 83.0703L375.133 112Z" fill="white"/>
<path d="M473.078 113.969C491.289 113.969 504.359 103.414 506.438 87.6094V87.2266H492.602L492.547 87.5C490.523 96.1953 483.086 101.773 473.078 101.773C459.625 101.773 451.258 90.5625 451.258 72.5703V72.4609C451.258 54.5234 459.625 43.3125 473.023 43.3125C482.977 43.3125 490.523 49.4922 492.547 58.8438L492.602 59.0625H506.438V58.625C504.578 42.4922 490.961 31.1172 473.023 31.1172C450.656 31.1172 436.82 46.9219 436.82 72.5156V72.625C436.82 98.1094 450.711 113.969 473.078 113.969Z" fill="white"/>
<path d="M518.414 112H532.031V78.5859C532.031 75.7786 532.56 73.3177 533.617 71.2031C534.674 69.0521 536.151 67.375 538.047 66.1719C539.979 64.9323 542.221 64.3125 544.773 64.3125C548.674 64.3125 551.701 65.5885 553.852 68.1406C556.003 70.6562 557.078 74.138 557.078 78.5859V112H570.695V75.9062C570.695 71.2396 569.857 67.1927 568.18 63.7656C566.503 60.3021 564.133 57.6224 561.07 55.7266C558.008 53.7943 554.38 52.8281 550.188 52.8281C545.885 52.8281 542.203 53.776 539.141 55.6719C536.115 57.5677 533.836 60.2656 532.305 63.7656H532.031V33.0859H518.414V112Z" fill="white"/>
<path d="M598.805 112.984C601.357 112.984 603.745 112.583 605.969 111.781C608.229 110.979 610.234 109.831 611.984 108.336C613.734 106.841 615.156 105.091 616.25 103.086H616.578V112H630.141V72.1328C630.141 68.2318 629.156 64.8411 627.188 61.9609C625.255 59.0807 622.503 56.8385 618.93 55.2344C615.393 53.6302 611.201 52.8281 606.352 52.8281C601.466 52.8281 597.237 53.612 593.664 55.1797C590.128 56.7474 587.357 58.8984 585.352 61.6328C583.346 64.3307 582.198 67.3932 581.906 70.8203L581.852 71.4766H594.43L594.539 70.9844C595.013 68.8333 596.216 67.0833 598.148 65.7344C600.081 64.349 602.651 63.6562 605.859 63.6562C609.323 63.6562 611.966 64.513 613.789 66.2266C615.648 67.9036 616.578 70.2005 616.578 73.1172V90.5078C616.578 92.8047 615.977 94.8646 614.773 96.6875C613.57 98.5104 611.93 99.9505 609.852 101.008C607.81 102.065 605.477 102.594 602.852 102.594C599.862 102.594 597.456 101.919 595.633 100.57C593.846 99.1849 592.953 97.3073 592.953 94.9375V94.8828C592.953 92.5859 593.846 90.7448 595.633 89.3594C597.419 87.974 599.99 87.1719 603.344 86.9531L623.578 85.6953V76.6719L601.43 78.0391C594.43 78.4401 588.997 80.1536 585.133 83.1797C581.305 86.1693 579.391 90.2344 579.391 95.375V95.4844C579.391 98.9115 580.193 101.956 581.797 104.617C583.438 107.242 585.716 109.302 588.633 110.797C591.586 112.255 594.977 112.984 598.805 112.984Z" fill="white"/>
<path d="M641.57 112H655.188V54.0312H641.57V112ZM648.352 45.7188C650.503 45.7188 652.307 44.9896 653.766 43.5312C655.224 42.0729 655.953 40.3229 655.953 38.2812C655.953 36.2031 655.224 34.4531 653.766 33.0312C652.307 31.5729 650.503 30.8438 648.352 30.8438C646.237 30.8438 644.451 31.5729 642.992 33.0312C641.534 34.4531 640.805 36.2031 640.805 38.2812C640.805 40.3229 641.534 42.0729 642.992 43.5312C644.451 44.9896 646.237 45.7188 648.352 45.7188Z" fill="white"/>
<path d="M666.781 112H680.344V78.3672C680.344 75.5599 680.872 73.1172 681.93 71.0391C682.987 68.9245 684.482 67.2839 686.414 66.1172C688.346 64.9141 690.607 64.3125 693.195 64.3125C697.06 64.3125 699.958 65.4427 701.891 67.7031C703.823 69.9271 704.789 73.099 704.789 77.2188V112H718.406V74.4844C718.406 67.776 716.656 62.4896 713.156 58.625C709.693 54.7604 704.771 52.8281 698.391 52.8281C694.016 52.8281 690.333 53.7578 687.344 55.6172C684.391 57.4766 682.167 59.974 680.672 63.1094H680.344V54.0312H666.781V112Z" fill="white"/>
<path d="M65.5904 65.5898C70.7895 66.8629 76.2189 66.8629 81.4179 65.5898C82.8707 59.6818 85.9131 54.2841 90.2152 49.982C94.5173 45.6799 99.915 42.6375 105.823 41.1846C107.021 36.287 107.089 31.1814 106.024 26.2533C104.959 21.3253 102.788 16.7037 99.675 12.7377C96.5619 8.77178 92.5883 5.56516 88.0542 3.36012C83.5201 1.15508 78.5442 0.00927734 73.5023 0.00927734C68.4605 0.00927734 63.4846 1.15508 58.9505 3.36012C54.4164 5.56516 50.4427 8.77178 47.3296 12.7377C44.2165 16.7037 42.0454 21.3253 40.9804 26.2533C39.9153 31.1814 39.9841 36.287 41.1816 41.1846C47.0909 42.6358 52.4899 45.6775 56.7929 49.9798C61.0959 54.2822 64.1384 59.6808 65.5904 65.5898V65.5898Z" fill="#7ABDF7"/>
<path d="M81.4142 81.4087C76.2152 80.1356 70.7858 80.1356 65.5868 81.4087C64.1339 87.3168 61.0915 92.7144 56.7894 97.0165C52.4873 101.319 47.0897 104.361 41.1816 105.814C39.9841 110.711 39.9153 115.817 40.9804 120.745C42.0454 125.673 44.2165 130.295 47.3296 134.261C50.4427 138.227 54.4164 141.433 58.9505 143.638C63.4846 145.843 68.4605 146.989 73.5023 146.989C78.5442 146.989 83.5201 145.843 88.0542 143.638C92.5883 141.433 96.5619 138.227 99.675 134.261C102.788 130.295 104.959 125.673 106.024 120.745C107.089 115.817 107.021 110.711 105.823 105.814C99.9138 104.363 94.5148 101.321 90.2118 97.0187C85.9088 92.7163 82.8662 87.3178 81.4142 81.4087Z" fill="#0D74F5"/>
<path d="M113.738 40.2236C111.073 40.2233 108.417 40.5436 105.828 41.1775C104.377 47.0854 101.335 52.483 97.0336 56.7847C92.7319 61.0863 87.3343 64.1278 81.4265 65.5791C80.1534 70.7781 80.1534 76.2075 81.4265 81.4065C87.3344 82.8589 92.732 85.9011 97.0336 90.2034C101.335 94.5056 104.377 99.9036 105.828 105.812C110.398 106.928 115.153 107.062 119.779 106.206C124.405 105.35 128.796 103.523 132.664 100.845C136.532 98.1665 139.788 94.6987 142.217 90.67C144.646 86.6412 146.193 82.1432 146.757 77.4726C147.32 72.802 146.886 68.0651 145.484 63.5744C144.082 59.0837 141.744 54.9413 138.624 51.4206C135.504 47.8998 131.672 45.0808 127.383 43.1495C123.093 41.2182 118.443 40.2184 113.738 40.2163V40.2236Z" fill="#4494F7"/>
<path d="M65.5913 81.4086C66.8644 76.2096 66.8644 70.7802 65.5913 65.5812C59.6831 64.1297 54.2852 61.0883 49.9829 56.7867C45.6807 52.4851 42.6384 47.0876 41.1861 41.1796C36.2885 39.9821 31.1828 39.9133 26.2548 40.9784C21.3267 42.0435 16.7052 44.2146 12.7392 47.3277C8.77325 50.4408 5.56663 54.4145 3.36159 58.9485C1.15654 63.4826 0.0107422 68.4585 0.0107422 73.5004C0.0107422 78.5422 1.15654 83.5181 3.36159 88.0522C5.56663 92.5863 8.77325 96.56 12.7392 99.6731C16.7052 102.786 21.3267 104.957 26.2548 106.022C31.1828 107.087 36.2885 107.019 41.1861 105.821C42.637 99.9114 45.6786 94.5117 49.9809 90.2081C54.2832 85.9045 59.6819 82.8613 65.5913 81.4086V81.4086Z" fill="#005CF4"/>
<path d="M81.4165 65.586C87.3246 64.1332 92.7223 61.0908 97.0244 56.7887C101.327 52.4866 104.369 47.0889 105.822 41.1808C99.9136 42.6336 94.516 45.676 90.2138 49.9781C85.9117 54.2802 82.8693 59.6779 81.4165 65.586V65.586Z" fill="#186EF9"/>
<path d="M81.4165 81.4105C82.8682 87.3192 85.9102 92.7174 90.2125 97.0197C94.5148 101.322 99.9131 104.364 105.822 105.816C104.369 99.9077 101.327 94.51 97.0244 90.2079C92.7223 85.9058 87.3246 82.8634 81.4165 81.4105V81.4105Z" fill="#0246F2"/>
<path d="M65.5859 65.586C64.133 59.6779 61.0907 54.2802 56.7885 49.9781C52.4864 45.676 47.0888 42.6336 41.1807 41.1808C42.6335 47.0889 45.6759 52.4866 49.978 56.7887C54.2801 61.0908 59.6778 64.1332 65.5859 65.586V65.586Z" fill="#0046F8"/>
<path d="M65.5859 81.4105C59.6778 82.8634 54.2801 85.9058 49.978 90.2079C45.6759 94.51 42.6335 99.9077 41.1807 105.816C47.0888 104.363 52.4864 101.321 56.7885 97.0184C61.0907 92.7163 64.133 87.3186 65.5859 81.4105V81.4105Z" fill="#0729F1"/>
<path d="M65.5904 65.5898C70.7895 66.8629 76.2189 66.8629 81.4179 65.5898C82.8707 59.6818 85.9131 54.2841 90.2152 49.982C94.5173 45.6799 99.915 42.6375 105.823 41.1846C107.021 36.287 107.089 31.1814 106.024 26.2533C104.959 21.3253 102.788 16.7037 99.675 12.7377C96.5619 8.77178 92.5883 5.56516 88.0542 3.36012C83.5201 1.15508 78.5442 0.00927734 73.5023 0.00927734C68.4605 0.00927734 63.4846 1.15508 58.9505 3.36012C54.4164 5.56516 50.4427 8.77178 47.3296 12.7377C44.2165 16.7037 42.0454 21.3253 40.9804 26.2533C39.9153 31.1814 39.9841 36.287 41.1816 41.1846C47.0909 42.6358 52.4899 45.6775 56.7929 49.9798C61.0959 54.2822 64.1384 59.6808 65.5904 65.5898V65.5898Z" fill="#7ABDF7"/>
<path d="M81.4142 81.4087C76.2152 80.1356 70.7858 80.1356 65.5868 81.4087C64.1339 87.3168 61.0915 92.7144 56.7894 97.0165C52.4873 101.319 47.0897 104.361 41.1816 105.814C39.9841 110.711 39.9153 115.817 40.9804 120.745C42.0454 125.673 44.2165 130.295 47.3296 134.261C50.4427 138.227 54.4164 141.433 58.9505 143.638C63.4846 145.843 68.4605 146.989 73.5023 146.989C78.5442 146.989 83.5201 145.843 88.0542 143.638C92.5883 141.433 96.5619 138.227 99.675 134.261C102.788 130.295 104.959 125.673 106.024 120.745C107.089 115.817 107.021 110.711 105.823 105.814C99.9138 104.363 94.5148 101.321 90.2118 97.0187C85.9088 92.7163 82.8662 87.3178 81.4142 81.4087Z" fill="#0D74F5"/>
<path d="M113.738 40.2236C111.073 40.2233 108.417 40.5436 105.828 41.1775C104.377 47.0854 101.335 52.483 97.0336 56.7847C92.7319 61.0863 87.3343 64.1278 81.4265 65.5791C80.1534 70.7781 80.1534 76.2075 81.4265 81.4065C87.3344 82.8589 92.732 85.9011 97.0336 90.2034C101.335 94.5056 104.377 99.9036 105.828 105.812C110.398 106.928 115.153 107.062 119.779 106.206C124.405 105.35 128.796 103.523 132.664 100.845C136.532 98.1665 139.788 94.6987 142.217 90.67C144.646 86.6412 146.193 82.1432 146.757 77.4726C147.32 72.802 146.886 68.0651 145.484 63.5744C144.082 59.0837 141.744 54.9413 138.624 51.4206C135.504 47.8998 131.672 45.0808 127.383 43.1495C123.093 41.2182 118.443 40.2184 113.738 40.2163V40.2236Z" fill="#4494F7"/>
<path d="M65.5913 81.4086C66.8644 76.2096 66.8644 70.7802 65.5913 65.5812C59.6831 64.1297 54.2852 61.0883 49.9829 56.7867C45.6807 52.4851 42.6384 47.0876 41.1861 41.1796C36.2885 39.9821 31.1828 39.9133 26.2548 40.9784C21.3267 42.0435 16.7052 44.2146 12.7392 47.3277C8.77325 50.4408 5.56663 54.4145 3.36159 58.9485C1.15654 63.4826 0.0107422 68.4585 0.0107422 73.5004C0.0107422 78.5422 1.15654 83.5181 3.36159 88.0522C5.56663 92.5863 8.77325 96.56 12.7392 99.6731C16.7052 102.786 21.3267 104.957 26.2548 106.022C31.1828 107.087 36.2885 107.019 41.1861 105.821C42.637 99.9114 45.6786 94.5117 49.9809 90.2081C54.2832 85.9045 59.6819 82.8613 65.5913 81.4086V81.4086Z" fill="#005CF4"/>
<path d="M81.4165 65.586C87.3246 64.1332 92.7223 61.0908 97.0244 56.7887C101.327 52.4866 104.369 47.0889 105.822 41.1808C99.9136 42.6336 94.516 45.676 90.2138 49.9781C85.9117 54.2802 82.8693 59.6779 81.4165 65.586V65.586Z" fill="#186EF9"/>
<path d="M81.4165 81.4105C82.8682 87.3192 85.9102 92.7174 90.2125 97.0197C94.5148 101.322 99.9131 104.364 105.822 105.816C104.369 99.9077 101.327 94.51 97.0244 90.2079C92.7223 85.9058 87.3246 82.8634 81.4165 81.4105V81.4105Z" fill="#0246F2"/>
<path d="M65.5859 65.586C64.133 59.6779 61.0907 54.2802 56.7885 49.9781C52.4864 45.676 47.0888 42.6336 41.1807 41.1808C42.6335 47.0889 45.6759 52.4866 49.978 56.7887C54.2801 61.0908 59.6778 64.1332 65.5859 65.586V65.586Z" fill="#0046F8"/>
<path d="M65.5859 81.4105C59.6778 82.8634 54.2801 85.9058 49.978 90.2079C45.6759 94.51 42.6335 99.9077 41.1807 105.816C47.0888 104.363 52.4864 101.321 56.7885 97.0184C61.0907 92.7163 64.133 87.3186 65.5859 81.4105V81.4105Z" fill="#0729F1"/>
</svg>
